<?xml version="1.0" standalone="no"?>
<!DOCTYPE svg PUBLIC "-//W3C//DTD SVG 20010904//EN"
 "http://www.w3.org/TR/2001/REC-SVG-20010904/DTD/svg10.dtd">
<svg version="1.0" xmlns="http://www.w3.org/2000/svg"
 width="512.000000pt" height="512.000000pt" viewBox="0 0 512.000000 512.000000"
 preserveAspectRatio="xMidYMid meet">

<g transform="translate(0.000000,512.000000) scale(0.100000,-0.100000)"
fill="#000000" stroke="none">
<path d="M0 4730 l0 -390 25 0 c14 0 30 9 37 20 15 23 28 26 28 6 0 -17 -51
-56 -74 -56 -15 0 -16 -189 -16 -2155 l0 -2155 2560 0 2560 0 0 2035 c0 1268
-4 2035 -9 2035 -6 0 -16 -8 -23 -18 -20 -27 -85 -51 -183 -66 -49 -8 -100
-18 -113 -21 -14 -5 -22 -3 -22 4 0 6 5 12 10 12 15 2 22 4 53 17 16 7 50 12
76 12 54 0 140 35 183 74 l28 25 0 506 0 505 -2560 0 -2560 0 0 -390z m1518
34 c33 -9 27 -24 -10 -24 -40 0 -200 -59 -218 -80 -16 -18 -63 -40 -106 -49
-27 -5 -61 -13 -76 -17 -45 -11 -32 12 15 25 97 28 129 42 164 70 21 16 70 41
108 54 77 28 89 30 123 21z m-944 -254 c-19 -7 -319 -16 -354 -10 -8 2 8 6 35
10 74 10 344 10 319 0z m-394 -5 c0 -3 -14 -12 -32 -19 -22 -10 -36 -25 -44
-47 -10 -28 -13 -31 -19 -16 -10 25 19 65 58 76 17 5 33 10 35 10 1 1 2 -1 2
-4z m3978 -553 c6 -18 -15 -14 -22 4 -4 10 -1 14 6 12 6 -2 14 -10 16 -16z
m499 5 c-6 -18 -77 -27 -118 -15 -50 14 -90 -5 -101 -49 -5 -18 -13 -33 -18
-33 -11 0 -2 59 13 78 5 6 19 12 31 12 11 0 26 4 33 8 21 13 165 12 160 -1z
m-657 -8 c0 -4 -15 -11 -34 -15 -35 -6 -60 1 -51 15 6 11 85 11 85 0z m230
-13 c0 -1 -14 0 -31 2 -21 3 -27 7 -18 13 11 6 49 -5 49 -15z m56 -27 c8 -14
-10 -11 -32 6 -18 13 -18 14 4 8 12 -3 25 -9 28 -14z"/>
</g>
</svg>
